# xmcd
#
# Track frame offsets: 
#        150
#        10241
#        36207
#        55028
#        71606
#        110487
#        146095
#        181619
#        198293
#
# Disc length: 3121 seconds
#
# Revision: 6
# Processed by: cddbd v1.5.2PL0 Copyright (c) Steve Scherf et al.
# Submitted via: ExactAudioCopyFreeDBPlugin 1.0
#
DISCID=750c2f09
DTITLE=Joe Bonamassa - Tour De Force: The Borderline
DYEAR=2014
DGENRE=Blues
TTITLE0=Albion (Intro)
TTITLE1=I Know Where I Belong
TTITLE2=Spanish Boots
TTITLE3=Your Funeral My Trial
TTITLE4=Blues Deluxe
TTITLE5=Pain And Sorrow
TTITLE6=Happier Times
TTITLE7=Steal Your Heart Away
TTITLE8=Miss You, Hate You
EXTD=
EXTT0=
EXTT1=
EXTT2=
EXTT3=
EXTT4=
EXTT5=
EXTT6=
EXTT7=
EXTT8=
PLAYORDER=
